<svg xmlns="http://www.w3.org/2000/svg" width="128" height="128" viewBox="0 0 128 128"><title>LocalDeck</title><rect width="128" height="128" rx="18" fill="#111c38"/><rect x="28" y="30" width="20" height="68" rx="5" fill="#bdc3d9"/><rect x="54" y="30" width="20" height="68" rx="5" fill="#ffffff"/><rect x="80" y="30" width="20" height="68" rx="5" fill="#314bef"/><path d="M28 82h20v11a5 5 0 0 1-5 5H33a5 5 0 0 1-5-5V82Zm26-23h20v34a5 5 0 0 1-5 5H59a5 5 0 0 1-5-5V59Zm26 12h20v22a5 5 0 0 1-5 5H85a5 5 0 0 1-5-5V71Z" fill="#dee3ec" opacity=".35"/></svg>
